# AST/ASF file generated using VICON BodyLanguage
# -----------------------------------------------
:version 1.10
:name VICON
:units
  mass 1.0
  length 0.45
  angle deg
:documentation
   .ast/.asf automatically generated from VICON data using
   VICON BodyBuilder and BodyLanguage model FoxedUp or BRILLIANT.MOD
:root
   order TX TY TZ RX RY RZ
   axis XYZ
   position 0 0 0  
   orientation 0 0 0 
:bonedata
  begin
     id 1 
     name lhipjoint
     direction 0.702568 -0.596508 0.388042 
     length 2.56661 
     axis 0 0 0  XYZ
  end
  begin
     id 2 
     name lfemur
     direction 0.34202 -0.939693 0  
     length 6.58374  
     axis 0 0 20  XYZ
    dof rx ry rz
    limits (-160.0 20.0)
           (-70.0 70.0)
           (-60.0 70.0)
  end
  begin
     id 3 
     name ltibia
     direction 0.34202 -0.939693 0   
     length 6.62538   
     axis 0 0 20   XYZ
    dof rx
    limits (-10.0 170.0)
  end
  begin
     id 4 
     name lfoot
     direction 0.10455 -0.287249 0.952133   
     length 2.26699   
     axis -90 7.62852e-016 20   XYZ
    dof rx rz
    limits (-45.0 90.0)
           (-70.0 20.0)
  end
  begin
     id 5 
     name ltoes
     direction 1.53572e-011 -4.22322e-011 1   
     length 1.12949   
     axis -90 7.62852e-016 20   XYZ
    dof rx
    limits (-90.0 20.0)
  end
  begin
     id 6 
     name rhipjoint
     direction -0.728055 -0.574632 0.373811   
     length 2.66432  
     axis 0 0 0  XYZ 
  end
  begin
     id 7 
     name rfemur
     direction -0.34202 -0.939693 0   
     length 6.66732   
     axis 0 0 -20   XYZ
    dof rx ry rz
    limits (-160.0 20.0)
           (-70.0 70.0)
           (-70.0 60.0)
  end
  begin
     id 8 
     name rtibia
     direction -0.34202 -0.939693 0   
     length 6.59288   
     axis 0 0 -20   XYZ
    dof rx
    limits (-10.0 170.0)
 end
 begin
     id 9 
     name rfoot
     direction -0.119193 -0.327479 0.93731   
     length 2.38061  
     axis -90 -7.62852e-016 -20   XYZ
    dof rx rz
    limits (-45.0 90.0)
           (-20.0 70.0)
  end
  begin
     id 10 
     name rtoes
     direction -1.53547e-011 -4.21827e-011 1   
     length 1.17899   
     axis -90 -7.62852e-016 -20   XYZ
    dof rx
    limits (-90.0 20.0)
  end
  begin
     id 11 
     name lowerback
     direction -0.000416114 0.999912 -0.0132284   
     length 2.12109   
     axis 0 0 0   XYZ
    dof rx ry rz
    limits (-20.0 45.0)
           (-30.0 30.0)
           (-30.0 30.0)
  end
  begin
     id 12 
     name upperback
     direction -0.00136371 0.99809 0.0617608   
     length 2.10067   
     axis 0 0 0   XYZ
    dof rx ry rz
    limits (-20.0 45.0)
           (-30.0 30.0)
           (-30.0 30.0)
  end
  begin
     id 13 
     name thorax
     direction -3.43026e-005 0.997776 0.0666515   
     length 2.10618   
     axis 0 0 0   XYZ
    dof rx ry rz
    limits (-20.0 45.0)
           (-30.0 30.0)
           (-30.0 30.0)
  end
  begin
     id 14 
     name lowerneck
     direction 0.0398646 0.998418 0.0396592   
     length 1.83817   
     axis 0 0 0   XYZ
    dof rx ry rz
    limits (-20.0 45.0)
           (-30.0 30.0)
           (-30.0 30.0)
  end
  begin
     id 15 
     name upperneck
     direction -0.0367268 0.961527 -0.272244   
     length 1.81975   
     axis 0 0 0   XYZ
    dof rx ry rz
    limits (-20.0 45.0)
           (-30.0 30.0)
           (-30.0 30.0)
  end
  begin
     id 16
     name head
     direction -0.0182665 0.99536 -0.0944669  
     length 1.86026  
     axis 0 0 0   XYZ
    dof rx ry rz
    limits (-20.0 45.0)
           (-30.0 30.0)
           (-30.0 30.0)
  end
  begin
     id 17 
     name lclavicle
     direction 0.924239 0.361045 0.124212  
     length 3.26878  
     axis 0 0 0   XYZ
    dof ry rz
    limits (-20.0 10.0)
           (0.0 20.0)
  end
  begin
     id 18 
     name lhumerus
     direction 1 -4.48968e-011 -2.56583e-027   
     length 4.58538   
     axis 180 -30 -90   XYZ
    dof rx ry rz
    limits (-60.0 90.0)
           (-90.0 90.0)
           (-90.0 90.0)
  end
  begin
     id 19
     name lradius
     direction 1 -4.4898e-011 -5.50375e-027   
     length 2.68935   
     axis 180 -30 -90   XYZ
    dof rx
    limits (-10.0 170.0)
  end
  begin
     id 20
     name lwrist
     direction 1 -4.48939e-011 -1.48955e-026   
     length 1.34468   
     axis 9.0955e-015 90 90   XYZ
    dof ry
    limits (-180.0 0.0)
 end
  begin
     id 21 
     name lhand
     direction 1 -4.48936e-011 -2.97907e-026   
     length 0.585058   
     axis 1.90115e-014 90 90   XYZ
    dof rx rz
    limits (-90.0 90.0)
           (-45.0 45.0)
  end
  begin
     id 22 
     name lfingers
     direction 1 -4.49082e-011 -5.96235e-026   
     length 0.471689   
     axis 3.80223e-014 90 90   XYZ
    dof rx
    limits (0.0 90.0)
  end
  begin
     id 23
     name lthumb
     direction 0.707107 -6.3489e-011 0.707107   
     length 0.677253   
     axis -90 45 -3.84942e-014   XYZ
    dof rx rz
    limits (-45.0 45.0)
           (-45.0 45.0)
  end
  begin
     id 24 
     name rclavicle
     direction -0.923098 0.371783 0.0983239   
     length 3.19656  
     axis 0 0 0   XYZ 
    dof ry rz
    limits (-10.0 20.0)
           (-20.0 0.0)
  end
  begin
     id 25 
     name rhumerus
     direction -1 -4.48976e-011 -2.5492e-027  
     length 4.4745   
     axis 180 30 90   XYZ
    dof rx ry rz
    limits (-90.0 60.0)
           (-90.0 90.0)
           (-90.0 90.0)
  end
  begin
     id 26 
     name rradius
     direction -1 -4.48941e-011 -4.36555e-027   
     length 2.93896   
     axis 180 30 90   XYZ
    dof rx
    limits (-10.0 170.0)
  end
  begin
     id 27 
     name rwrist
     direction -1 -4.49044e-011 -1.49032e-026   
     length 1.46948   
     axis 9.0955e-015 -90 -90   XYZ
    dof ry
    limits (-180.0 0.0)
  end
  begin
     id 28
     name rhand
     direction -1 -4.48826e-011 -2.97749e-026   
     length 0.405092   
     axis 1.90115e-014 -90 -90   XYZ
    dof rx rz
    limits (-90.0 90.0)
           (-45.0 45.0)
  end
  begin
     id 29
     name rfingers
     direction -1 -4.49209e-011 -5.96602e-026   
     length 0.326596   
     axis 3.80223e-014 -90 -90   XYZ
    dof rx
    limits (0.0 90.0)
  end
  begin
     id 30
     name rthumb
     direction -0.707107 -6.34776e-011 0.707107   
     length 0.468928   
     axis -90 -45 3.84942e-014   XYZ
    dof rx rz
    limits (-45.0 45.0)
           (-45.0 45.0)
  end
:hierarchy
  begin
    root lhipjoint rhipjoint lowerback
    lhipjoint lfemur
    lfemur ltibia
    ltibia lfoot
    lfoot ltoes
    rhipjoint rfemur
    rfemur rtibia
    rtibia rfoot
    rfoot rtoes
    lowerback upperback
    upperback thorax
    thorax lowerneck lclavicle rclavicle
    lowerneck upperneck
    upperneck head
    lclavicle lhumerus
    lhumerus lradius
    lradius lwrist
    lwrist lhand lthumb
    lhand lfingers
    rclavicle rhumerus
    rhumerus rradius
    rradius rwrist
    rwrist rhand rthumb
    rhand rfingers
  end

#!OML:ASF H:\Punching\Project 1\Capture day 1\Session 1\female.ASF
:FULLY-SPECIFIED
:DEGREES
105
root 1.80617 15.629 6.63375 9.18403 -3.90324 0.145462
lowerback -1.67228 1.01051 -0.0108122
upperback -5.92858 1.34291 -0.157613
thorax -5.18198 0.664411 -0.195464
lowerneck -9.31739 1.81197 9.25079
upperneck 26.4831 2.11349 -5.30307
head 10.1006 1.30549 -3.22479
rclavicle -1.0343e-014 -1.13556e-014
rhumerus -47.2466 41.8118 -109.947
rradius 74.8924
rwrist -58.03
rhand -4.19638 -23.756
rfingers 7.12502
rthumb 21.5654 -52.5753
lclavicle -1.0343e-014 -1.13556e-014
lhumerus -43.1247 -27.9087 103.572
lradius 100.627
lwrist -0.00017335
lhand -22.2295 13.9344
lfingers 7.12502
lthumb 4.18714 43.873
rfemur -25.0475 -2.75991 8.68215
rtibia 45.2426
rfoot -13.3201 -8.95714
rtoes -16.0457
lfemur -12.0734 -7.51044 -19.4993
ltibia 23.4632
lfoot -18.6244 14.6725
ltoes -1.83814
106
root 1.80547 15.624 6.6464 8.99336 -3.83061 0.406869
lowerback -1.50013 1.04584 -0.312987
upperback -5.8289 1.38063 -0.278205
thorax -5.17914 0.694257 -0.154619
lowerneck -9.31024 1.74187 9.27372
upperneck 26.5464 1.97927 -5.18141
head 10.1111 1.26047 -3.20164
rclavicle 9.46984e-015 -1.77477e-014
rhumerus -46.6783 42.9777 -110.132
rradius 75.9927
rwrist -57.4406
rhand -4.52827 -23.5551
rfingers 7.12502
rthumb 21.2466 -52.4107
lclavicle 9.46984e-015 -1.77477e-014
lhumerus -42.7248 -29.3992 103.794
lradius 102.277
lwrist 0.4422
lhand -22.6361 13.6958
lfingers 7.12502
lthumb 3.7945 43.6418
rfemur -26.1077 -3.09858 8.31326
rtibia 47.1454
rfoot -12.8122 -8.18773
rtoes -15.1868
lfemur -11.676 -7.55811 -19.8136
ltibia 23.1347
lfoot -18.4718 14.5727
ltoes -1.92073
107
root 1.8027 15.6189 6.66107 8.81292 -3.72537 0.617672
lowerback -1.34047 1.07914 -0.542548
upperback -5.73751 1.41619 -0.394701
thorax -5.17666 0.719577 -0.150014
lowerneck -9.29385 1.66696 9.29176
upperneck 26.6259 1.83757 -5.04936
head 10.1253 1.21316 -3.17507
rclavicle -2.32081e-014 5.44173e-015
rhumerus -46.0075 44.1428 -110.21
rradius 77.0658
rwrist -56.7341
rhand -4.8991 -23.2555
rfingers 7.12502
rthumb 20.8904 -52.1507
lclavicle -2.32081e-014 5.44173e-015
lhumerus -42.3255 -30.872 103.967
lradius 103.867
lwrist 0.845574
lhand -22.9957 13.465
lfingers 7.12502
lthumb 3.44721 43.4168
rfemur -27.101 -3.41482 7.99969
rtibia 48.8174
rfoot -12.47 -7.45416
rtoes -14.5545
lfemur -11.3086 -7.62467 -20.0621
ltibia 22.8588
lfoot -18.3394 14.4741
ltoes -1.99461
108
root 1.7974 15.6144 6.67883 8.63819 -3.58759 0.766153
lowerback -1.19939 1.10788 -0.699324
upperback -5.64956 1.4471 -0.497304
thorax -5.16591 0.739469 -0.171298
lowerneck -9.27572 1.58931 9.30178
upperneck 26.7252 1.69209 -4.91023
head 10.1462 1.16459 -3.14539
rclavicle -3.58744e-015 1.14301e-014
rhumerus -45.2276 45.3312 -110.164
rradius 78.1095
rwrist -55.9323
rhand -5.20876 -22.9057
rfingers 7.12502
rthumb 20.5928 -51.8334
lclavicle -3.58744e-015 1.14301e-014
lhumerus -41.9198 -32.3053 104.091
lradius 105.382
lwrist 1.20689
lhand -23.3196 13.2193
lfingers 7.12502
lthumb 3.13443 43.176
rfemur -28.0038 -3.69596 7.75285
rtibia 50.2185
rfoot -12.2936 -6.78832
rtoes -14.1627
lfemur -10.9595 -7.70853 -20.2308
ltibia 22.6351
lfoot -18.2351 14.3778
ltoes -2.07159
109
root 1.79025 15.6109 6.69867 8.48376 -3.42775 0.847738
lowerback -1.07407 1.13475 -0.774735
upperback -5.57379 1.47746 -0.58458
thorax -5.15736 0.755708 -0.222074
lowerneck -9.25334 1.50943 9.30253
upperneck 26.8432 1.54434 -4.76553
head 10.173 1.11521 -3.11272
rclavicle -1.17097e-014 -1.19271e-015
rhumerus -44.3316 46.5469 -109.974
rradius 79.1303
rwrist -55.0505
rhand -5.47825 -22.485
rfingers 7.12502
rthumb 20.3338 -51.4405
lclavicle -1.17097e-014 -1.19271e-015
lhumerus -41.5146 -33.6724 104.17
lradius 106.817
lwrist 1.5104
lhand -23.6158 12.9377
lfingers 7.12502
lthumb 2.8484 42.8984
rfemur -28.8346 -3.93571 7.57077
rtibia 51.3129
rfoot -12.2186 -6.20891
rtoes -13.953
lfemur -10.644 -7.804 -20.3157
ltibia 22.4547
lfoot -18.1553 14.2872
ltoes -2.1544
110
root 1.78115 15.6087 6.72069 8.34852 -3.25126 0.857164
lowerback -0.966845 1.16199 -0.767904
upperback -5.50461 1.51072 -0.654604
thorax -5.14364 0.770091 -0.300802
lowerneck -9.2378 1.42775 9.29577
upperneck 26.977 1.39323 -4.61512
head 10.2069 1.06459 -3.07736
rclavicle 1.60922e-014 -9.64106e-015
rhumerus -43.2805 47.7864 -109.594
rradius 80.132
rwrist -54.1238
rhand -5.67134 -22.03
rfingers 7.12502
rthumb 20.1483 -51.0052
lclavicle 1.60922e-014 -9.64106e-015
lhumerus -41.0985 -34.9583 104.198
lradius 108.164
lwrist 1.74325
lhand -23.8802 12.6084
lfingers 7.12502
lthumb 2.59307 42.5724
rfemur -29.5826 -4.11378 7.4556
rtibia 52.069
rfoot -12.1865 -5.7364
rtoes -13.864
lfemur -10.3523 -7.90302 -20.3106
ltibia 22.3042
lfoot -18.0997 14.1999
ltoes -2.25152
111
root 1.77016 15.608 6.74453 8.23915 -3.05993 0.807241
lowerback -0.873384 1.18803 -0.696169
upperback -5.44829 1.54447 -0.708755
thorax -5.13418 0.782243 -0.399336
lowerneck -9.2333 1.34477 9.28108
upperneck 27.13 1.23927 -4.45974
head 10.2502 1.01293 -3.03955
rclavicle -8.24335e-015 -8.44835e-015
rhumerus -42.0485 49.0393 -108.987
rradius 81.1263
rwrist -53.1983
rhand -5.79414 -21.5887
rfingers 7.12502
rthumb 20.0302 -50.5763
lclavicle -8.24335e-015 -8.44835e-015
lhumerus -40.6789 -36.148 104.182
lradius 109.422
lwrist 1.90912
lhand -24.1014 12.23
lfingers 7.12502
lthumb 2.37945 42.1965
rfemur -30.251 -4.22287 7.38959
rtibia 52.4666
rfoot -12.1622 -5.37304
rtoes -13.8485
lfemur -10.0902 -8.00377 -20.2271
ltibia 22.1751
lfoot -18.0663 14.112
ltoes -2.37387
